# xmcd
#
# Track frame offsets: 
#        150
#        19293
#        35998
#        59435
#        82633
#        99490
#        116090
#        129988
#        143948
#        161300
#        183978
#
# Disc length: 2658 seconds
#
# Revision: 0
# Processed by: cddbd v1.5.1PL2 Copyright (c) Steve Scherf et al.
# Submitted via: ExactAudioCopy v0.95a4
#
DISCID=8e0a600b
DTITLE=Slash Cowboy - Big Feet, Big Boots
DYEAR=1989
DGENRE=
TTITLE0=Hot Texas Love
TTITLE1=She Turns Me Round
TTITLE2=Too Late For Yesterday
TTITLE3=Alone Tonight
TTITLE4=The Loner Inside
TTITLE5=Hunker Down
TTITLE6=Come On
TTITLE7=American Drought
TTITLE8=Don't Cry
TTITLE9=Brother To Brother
TTITLE10=Leave Me Alone
EXTD=
EXTT0=
EXTT1=
EXTT2=
EXTT3=
EXTT4=
EXTT5=
EXTT6=
EXTT7=
EXTT8=
EXTT9=
EXTT10=
PLAYORDER=
